<mxfile host="app.diagrams.net" modified="2023-11-28T07:16:42.460Z" agent="Mozilla/5.0 (Windows NT 10.0; Win64; x64) AppleWebKit/537.36 (KHTML, like Gecko) Chrome/118.0.0.0 Safari/537.36 OPR/104.0.0.0" etag="j6aL3TX9lwtNWBVLhyoW" version="22.1.4" type="device">
  <diagram name="Page-1" id="6G_XyiH_UpfWlHVDRDG_">
    <mxGraphModel dx="5350" dy="2805" grid="1" gridSize="10" guides="1" tooltips="1" connect="1" arrows="1" fold="1" page="1" pageScale="1" pageWidth="850" pageHeight="1100" math="0" shadow="0">
      <root>
        <mxCell id="0" />
        <mxCell id="1" parent="0" />
        <mxCell id="8aEzLHYYMAuPvHVN1FfV-11" value="" style="endArrow=none;html=1;rounded=0;entryX=0.5;entryY=1;entryDx=0;entryDy=0;exitX=0.5;exitY=0;exitDx=0;exitDy=0;" parent="1" source="8aEzLHYYMAuPvHVN1FfV-4" target="8aEzLHYYMAuPvHVN1FfV-2" edge="1">
          <mxGeometry width="50" height="50" relative="1" as="geometry">
            <mxPoint x="405" y="320" as="sourcePoint" />
            <mxPoint x="455" y="270" as="targetPoint" />
            <Array as="points">
              <mxPoint x="120" y="200" />
              <mxPoint x="360" y="200" />
            </Array>
          </mxGeometry>
        </mxCell>
        <mxCell id="8aEzLHYYMAuPvHVN1FfV-12" value="" style="endArrow=none;html=1;rounded=0;entryX=0.5;entryY=0;entryDx=0;entryDy=0;exitX=0.5;exitY=1;exitDx=0;exitDy=0;" parent="1" source="8aEzLHYYMAuPvHVN1FfV-2" target="8aEzLHYYMAuPvHVN1FfV-6" edge="1">
          <mxGeometry width="50" height="50" relative="1" as="geometry">
            <mxPoint x="405" y="320" as="sourcePoint" />
            <mxPoint x="455" y="270" as="targetPoint" />
            <Array as="points">
              <mxPoint x="360" y="200" />
              <mxPoint x="600" y="200" />
            </Array>
          </mxGeometry>
        </mxCell>
        <mxCell id="8aEzLHYYMAuPvHVN1FfV-18" value="" style="endArrow=none;html=1;rounded=0;entryX=0.5;entryY=1;entryDx=0;entryDy=0;" parent="1" source="8aEzLHYYMAuPvHVN1FfV-9" target="8aEzLHYYMAuPvHVN1FfV-2" edge="1">
          <mxGeometry width="50" height="50" relative="1" as="geometry">
            <mxPoint x="310" y="330" as="sourcePoint" />
            <mxPoint x="360" y="280" as="targetPoint" />
          </mxGeometry>
        </mxCell>
        <mxCell id="8aEzLHYYMAuPvHVN1FfV-19" value="PENOLONG SETIAUSAHA&lt;br/&gt;" style="text;html=1;strokeColor=none;fillColor=none;align=center;verticalAlign=middle;whiteSpace=wrap;rounded=0;fontStyle=1" parent="1" vertex="1">
          <mxGeometry x="-8.75" y="570" width="172.5" height="40" as="geometry" />
        </mxCell>
        <mxCell id="8aEzLHYYMAuPvHVN1FfV-20" value="PK MUHAMMAD WAZIF FAKHRULLAH BIN FAIZULAFFIAN NV/8709061&amp;nbsp;" style="text;html=1;strokeColor=none;fillColor=none;align=center;verticalAlign=middle;whiteSpace=wrap;rounded=0;" parent="1" vertex="1">
          <mxGeometry x="-95" y="600" width="345" height="30" as="geometry" />
        </mxCell>
        <mxCell id="8aEzLHYYMAuPvHVN1FfV-23" value="PENOLONG BENDAHARI&lt;br/&gt;" style="text;html=1;strokeColor=none;fillColor=none;align=center;verticalAlign=middle;whiteSpace=wrap;rounded=0;fontStyle=1" parent="1" vertex="1">
          <mxGeometry x="591.25" y="570" width="172.5" height="40" as="geometry" />
        </mxCell>
        <mxCell id="8aEzLHYYMAuPvHVN1FfV-24" value="PK NUR HAZIQAH BINTI SAMSUDIN &lt;br&gt;NV/8709063&lt;br/&gt;" style="text;html=1;strokeColor=none;fillColor=none;align=center;verticalAlign=middle;whiteSpace=wrap;rounded=0;" parent="1" vertex="1">
          <mxGeometry x="505" y="600" width="345" height="30" as="geometry" />
        </mxCell>
        <mxCell id="8aEzLHYYMAuPvHVN1FfV-25" value="AJK SUKAN&lt;br/&gt;" style="text;html=1;strokeColor=none;fillColor=none;align=center;verticalAlign=middle;whiteSpace=wrap;rounded=0;fontStyle=1" parent="1" vertex="1">
          <mxGeometry x="-3.75" y="705" width="172.5" height="40" as="geometry" />
        </mxCell>
        <mxCell id="8aEzLHYYMAuPvHVN1FfV-26" value="PK MUHAMMAD HAFIZ BIN BUANG &lt;br&gt;NV/8709059" style="text;html=1;strokeColor=none;fillColor=none;align=center;verticalAlign=middle;whiteSpace=wrap;rounded=0;" parent="1" vertex="1">
          <mxGeometry x="-90" y="735" width="345" height="30" as="geometry" />
        </mxCell>
        <mxCell id="8aEzLHYYMAuPvHVN1FfV-27" value="AJK KEROHANIAN&lt;br&gt;" style="text;html=1;strokeColor=none;fillColor=none;align=center;verticalAlign=middle;whiteSpace=wrap;rounded=0;fontStyle=1" parent="1" vertex="1">
          <mxGeometry x="576.25" y="705" width="172.5" height="40" as="geometry" />
        </mxCell>
        <mxCell id="8aEzLHYYMAuPvHVN1FfV-28" value="PK HAFIZ IZUDDIN BIN ZAHARIL ANUAR &lt;br&gt;NV/8709075" style="text;html=1;strokeColor=none;fillColor=none;align=center;verticalAlign=middle;whiteSpace=wrap;rounded=0;" parent="1" vertex="1">
          <mxGeometry x="490" y="735" width="345" height="30" as="geometry" />
        </mxCell>
        <mxCell id="8aEzLHYYMAuPvHVN1FfV-29" value="AJK MULTIMEDIA&lt;br/&gt;" style="text;html=1;strokeColor=none;fillColor=none;align=center;verticalAlign=middle;whiteSpace=wrap;rounded=0;fontStyle=1" parent="1" vertex="1">
          <mxGeometry x="273.75" y="700" width="172.5" height="40" as="geometry" />
        </mxCell>
        <mxCell id="8aEzLHYYMAuPvHVN1FfV-30" value="PK MUNIRAH BINTI MAHADIR &lt;br&gt;NV/8709043&amp;nbsp;&lt;br&gt;" style="text;html=1;strokeColor=none;fillColor=none;align=center;verticalAlign=middle;whiteSpace=wrap;rounded=0;" parent="1" vertex="1">
          <mxGeometry x="187.5" y="730" width="345" height="30" as="geometry" />
        </mxCell>
        <mxCell id="8aEzLHYYMAuPvHVN1FfV-31" value="PK AZFAR ARIF BIN ISMAIL &lt;br&gt;NV/8709062&amp;nbsp;" style="text;html=1;strokeColor=none;fillColor=none;align=center;verticalAlign=middle;whiteSpace=wrap;rounded=0;" parent="1" vertex="1">
          <mxGeometry x="187.5" y="770" width="345" height="30" as="geometry" />
        </mxCell>
        <mxCell id="8aEzLHYYMAuPvHVN1FfV-32" value="PK NURIN SOFEA BINTI ABDUL HALIM &lt;br&gt;NV/8709079" style="text;html=1;strokeColor=none;fillColor=none;align=center;verticalAlign=middle;whiteSpace=wrap;rounded=0;" parent="1" vertex="1">
          <mxGeometry x="187.5" y="805" width="345" height="30" as="geometry" />
        </mxCell>
        <mxCell id="8aEzLHYYMAuPvHVN1FfV-33" value="AHLI AKTIF&lt;br/&gt;" style="text;html=1;strokeColor=none;fillColor=none;align=center;verticalAlign=middle;whiteSpace=wrap;rounded=0;fontStyle=1" parent="1" vertex="1">
          <mxGeometry x="273.75" y="890" width="172.5" height="40" as="geometry" />
        </mxCell>
        <mxCell id="8aEzLHYYMAuPvHVN1FfV-34" value="PK NURAIN SYAQIRAH BINTI ZULKARNAIN &lt;br&gt;NV/8709044&amp;nbsp;" style="text;html=1;strokeColor=none;fillColor=none;align=center;verticalAlign=middle;whiteSpace=wrap;rounded=0;" parent="1" vertex="1">
          <mxGeometry x="30" y="940" width="345" height="30" as="geometry" />
        </mxCell>
        <mxCell id="8aEzLHYYMAuPvHVN1FfV-35" value="PK CLARA ERNA GEMINIK &lt;br&gt;NV/8709045&amp;nbsp;" style="text;html=1;strokeColor=none;fillColor=none;align=center;verticalAlign=middle;whiteSpace=wrap;rounded=0;" parent="1" vertex="1">
          <mxGeometry x="330" y="940" width="345" height="30" as="geometry" />
        </mxCell>
        <mxCell id="8aEzLHYYMAuPvHVN1FfV-36" value="" style="group" parent="1" vertex="1" connectable="0">
          <mxGeometry x="-32.5" y="480" width="345" height="60" as="geometry" />
        </mxCell>
        <mxCell id="8aEzLHYYMAuPvHVN1FfV-13" value="SETIAUSAHA" style="text;html=1;strokeColor=none;fillColor=none;align=center;verticalAlign=middle;whiteSpace=wrap;rounded=0;fontStyle=1" parent="8aEzLHYYMAuPvHVN1FfV-36" vertex="1">
          <mxGeometry x="122.5" width="110" height="40" as="geometry" />
        </mxCell>
        <mxCell id="8aEzLHYYMAuPvHVN1FfV-14" value="PK EVY UMANG JOE JEFFREY &lt;br&gt;NV/8709077" style="text;html=1;strokeColor=none;fillColor=none;align=center;verticalAlign=middle;whiteSpace=wrap;rounded=0;" parent="8aEzLHYYMAuPvHVN1FfV-36" vertex="1">
          <mxGeometry y="30" width="345" height="30" as="geometry" />
        </mxCell>
        <mxCell id="8aEzLHYYMAuPvHVN1FfV-37" value="" style="group" parent="1" vertex="1" connectable="0">
          <mxGeometry x="397.5" y="480" width="345" height="60" as="geometry" />
        </mxCell>
        <mxCell id="8aEzLHYYMAuPvHVN1FfV-21" value="BENDAHARI" style="text;html=1;strokeColor=none;fillColor=none;align=center;verticalAlign=middle;whiteSpace=wrap;rounded=0;fontStyle=1" parent="8aEzLHYYMAuPvHVN1FfV-37" vertex="1">
          <mxGeometry x="122.5" width="110" height="40" as="geometry" />
        </mxCell>
        <mxCell id="8aEzLHYYMAuPvHVN1FfV-22" value="PK NUR MAISARAH BINTI MOHD ROSLAN &lt;br&gt;NV/8709054&amp;nbsp;" style="text;html=1;strokeColor=none;fillColor=none;align=center;verticalAlign=middle;whiteSpace=wrap;rounded=0;" parent="8aEzLHYYMAuPvHVN1FfV-37" vertex="1">
          <mxGeometry y="30" width="345" height="30" as="geometry" />
        </mxCell>
        <mxCell id="8aEzLHYYMAuPvHVN1FfV-38" value="" style="group" parent="1" vertex="1" connectable="0">
          <mxGeometry x="187.5" y="340" width="345" height="60" as="geometry" />
        </mxCell>
        <mxCell id="8aEzLHYYMAuPvHVN1FfV-9" value="PMC" style="text;html=1;strokeColor=none;fillColor=none;align=center;verticalAlign=middle;whiteSpace=wrap;rounded=0;fontStyle=1" parent="8aEzLHYYMAuPvHVN1FfV-38" vertex="1">
          <mxGeometry x="117.5" width="110" height="40" as="geometry" />
        </mxCell>
        <mxCell id="8aEzLHYYMAuPvHVN1FfV-10" value="PK MUHAMAD ALIF ZULKARNAIN BIN KAMARUZAMAN NV/8709078&amp;nbsp;" style="text;html=1;strokeColor=none;fillColor=none;align=center;verticalAlign=middle;whiteSpace=wrap;rounded=0;" parent="8aEzLHYYMAuPvHVN1FfV-38" vertex="1">
          <mxGeometry y="30" width="345" height="30" as="geometry" />
        </mxCell>
        <mxCell id="8aEzLHYYMAuPvHVN1FfV-39" value="" style="group;fillColor=#dae8fc;strokeColor=#6c8ebf;" parent="1" vertex="1" connectable="0">
          <mxGeometry x="470" y="230" width="260" height="60" as="geometry" />
        </mxCell>
        <mxCell id="8aEzLHYYMAuPvHVN1FfV-6" value="ZAIN" style="text;html=1;strokeColor=none;fillColor=none;align=center;verticalAlign=middle;whiteSpace=wrap;rounded=0;fontStyle=1" parent="8aEzLHYYMAuPvHVN1FfV-39" vertex="1">
          <mxGeometry x="75" width="110" height="40" as="geometry" />
        </mxCell>
        <mxCell id="8aEzLHYYMAuPvHVN1FfV-7" value="PK NUR SHAHIRAH FIKRIYAH BINTI ZAINAL NV/8709042" style="text;html=1;strokeColor=none;fillColor=none;align=center;verticalAlign=middle;whiteSpace=wrap;rounded=0;" parent="8aEzLHYYMAuPvHVN1FfV-39" vertex="1">
          <mxGeometry y="30" width="260" height="30" as="geometry" />
        </mxCell>
        <mxCell id="8aEzLHYYMAuPvHVN1FfV-40" value="" style="group;fillColor=#fff2cc;strokeColor=#d6b656;" parent="1" vertex="1" connectable="0">
          <mxGeometry x="230" y="100" width="260" height="70" as="geometry" />
        </mxCell>
        <mxCell id="8aEzLHYYMAuPvHVN1FfV-1" value="PEGAWAI PEMERINTAH&lt;br&gt;" style="text;html=1;strokeColor=none;fillColor=none;align=center;verticalAlign=middle;whiteSpace=wrap;rounded=0;fontStyle=1" parent="8aEzLHYYMAuPvHVN1FfV-40" vertex="1">
          <mxGeometry x="42.5" width="175" height="40" as="geometry" />
        </mxCell>
        <mxCell id="8aEzLHYYMAuPvHVN1FfV-2" value="PK MOHAMAD AZROL AZIMAN BIN AZIZON&lt;br&gt;NV/8709052&amp;nbsp;" style="text;html=1;strokeColor=none;fillColor=none;align=center;verticalAlign=middle;whiteSpace=wrap;rounded=0;" parent="8aEzLHYYMAuPvHVN1FfV-40" vertex="1">
          <mxGeometry y="30" width="260" height="30" as="geometry" />
        </mxCell>
        <mxCell id="8aEzLHYYMAuPvHVN1FfV-41" value="" style="group;fillColor=#f8cecc;strokeColor=#b85450;" parent="1" vertex="1" connectable="0">
          <mxGeometry x="-10" y="230" width="260" height="60" as="geometry" />
        </mxCell>
        <mxCell id="8aEzLHYYMAuPvHVN1FfV-4" value="THANA" style="text;html=1;strokeColor=none;fillColor=none;align=center;verticalAlign=middle;whiteSpace=wrap;rounded=0;fontStyle=1" parent="8aEzLHYYMAuPvHVN1FfV-41" vertex="1">
          <mxGeometry x="70" width="120" height="40" as="geometry" />
        </mxCell>
        <mxCell id="8aEzLHYYMAuPvHVN1FfV-5" value="PK ALIFF HAIQAL BIN JEFRI&lt;br&gt;NV/8709071&amp;nbsp;" style="text;html=1;strokeColor=none;fillColor=none;align=center;verticalAlign=middle;whiteSpace=wrap;rounded=0;" parent="8aEzLHYYMAuPvHVN1FfV-41" vertex="1">
          <mxGeometry y="30" width="260" height="30" as="geometry" />
        </mxCell>
        <mxCell id="8aEzLHYYMAuPvHVN1FfV-42" value="PK NUR AINAH NABILAH BINTI SAZALI &lt;br&gt;NV/8709047&amp;nbsp;" style="text;html=1;strokeColor=none;fillColor=none;align=center;verticalAlign=middle;whiteSpace=wrap;rounded=0;" parent="1" vertex="1">
          <mxGeometry x="-290" y="990" width="345" height="30" as="geometry" />
        </mxCell>
        <mxCell id="8aEzLHYYMAuPvHVN1FfV-43" value="PK NASRIN SYAMIMI BINTI SUHAIMEE &lt;br&gt;NV/8709049&amp;nbsp;" style="text;html=1;strokeColor=none;fillColor=none;align=center;verticalAlign=middle;whiteSpace=wrap;rounded=0;" parent="1" vertex="1">
          <mxGeometry x="30" y="990" width="345" height="30" as="geometry" />
        </mxCell>
        <mxCell id="8aEzLHYYMAuPvHVN1FfV-44" value="PK NORIZAN BINTI NAWI &lt;br&gt;NV/8709050&amp;nbsp;" style="text;html=1;strokeColor=none;fillColor=none;align=center;verticalAlign=middle;whiteSpace=wrap;rounded=0;" parent="1" vertex="1">
          <mxGeometry x="330" y="990" width="345" height="30" as="geometry" />
        </mxCell>
        <mxCell id="8aEzLHYYMAuPvHVN1FfV-45" value="PK AMIRAH AFIQAH BINTI MOHAMAD NASSIR &lt;br&gt;NV/8709049&amp;nbsp;" style="text;html=1;strokeColor=none;fillColor=none;align=center;verticalAlign=middle;whiteSpace=wrap;rounded=0;" parent="1" vertex="1">
          <mxGeometry x="630" y="990" width="345" height="30" as="geometry" />
        </mxCell>
        <mxCell id="8aEzLHYYMAuPvHVN1FfV-46" value="PK AHMAD AZRI BIN JAPRI &lt;br&gt;NV/8709053&amp;nbsp;" style="text;html=1;strokeColor=none;fillColor=none;align=center;verticalAlign=middle;whiteSpace=wrap;rounded=0;" parent="1" vertex="1">
          <mxGeometry x="-290" y="1040" width="345" height="30" as="geometry" />
        </mxCell>
        <mxCell id="8aEzLHYYMAuPvHVN1FfV-47" value="PK THOMPSON MAXWELL SOIL &lt;br&gt;NV/8709053&amp;nbsp;" style="text;html=1;strokeColor=none;fillColor=none;align=center;verticalAlign=middle;whiteSpace=wrap;rounded=0;" parent="1" vertex="1">
          <mxGeometry x="30" y="1044" width="345" height="30" as="geometry" />
        </mxCell>
        <mxCell id="8aEzLHYYMAuPvHVN1FfV-48" value="PK GREG HANS HANSON ANAK PUSS &lt;br&gt;NV/8709054&amp;nbsp;" style="text;html=1;strokeColor=none;fillColor=none;align=center;verticalAlign=middle;whiteSpace=wrap;rounded=0;" parent="1" vertex="1">
          <mxGeometry x="330" y="1044" width="345" height="30" as="geometry" />
        </mxCell>
        <mxCell id="8aEzLHYYMAuPvHVN1FfV-49" value="PK WAN MUHAMMAD ALIF BIN WAN KAMALRUZAMAN NV/8709055&amp;nbsp;" style="text;html=1;strokeColor=none;fillColor=none;align=center;verticalAlign=middle;whiteSpace=wrap;rounded=0;" parent="1" vertex="1">
          <mxGeometry x="630" y="1044" width="345" height="30" as="geometry" />
        </mxCell>
        <mxCell id="8aEzLHYYMAuPvHVN1FfV-50" value="PK MUHAMMAD HAFIZ BIN BUANG &lt;br&gt;NV/8709056&amp;nbsp;" style="text;html=1;strokeColor=none;fillColor=none;align=center;verticalAlign=middle;whiteSpace=wrap;rounded=0;" parent="1" vertex="1">
          <mxGeometry x="-290" y="1091" width="345" height="30" as="geometry" />
        </mxCell>
        <mxCell id="8aEzLHYYMAuPvHVN1FfV-51" value="PK ONG ZHI YUN &lt;br&gt;NV/8709060&amp;nbsp;" style="text;html=1;strokeColor=none;fillColor=none;align=center;verticalAlign=middle;whiteSpace=wrap;rounded=0;" parent="1" vertex="1">
          <mxGeometry x="30" y="1091" width="345" height="30" as="geometry" />
        </mxCell>
        <mxCell id="8aEzLHYYMAuPvHVN1FfV-52" value="PK NUR HIDAYAH BINTI ZAHARI &lt;br&gt;NV/8709065&amp;nbsp;" style="text;html=1;strokeColor=none;fillColor=none;align=center;verticalAlign=middle;whiteSpace=wrap;rounded=0;" parent="1" vertex="1">
          <mxGeometry x="330" y="1091" width="345" height="30" as="geometry" />
        </mxCell>
        <mxCell id="8aEzLHYYMAuPvHVN1FfV-53" value="PK NOR FARISHA NATASHA BINTI ROSEMAN AFFENDI NV/8709066&amp;nbsp;" style="text;html=1;strokeColor=none;fillColor=none;align=center;verticalAlign=middle;whiteSpace=wrap;rounded=0;" parent="1" vertex="1">
          <mxGeometry x="630" y="1091" width="345" height="30" as="geometry" />
        </mxCell>
        <mxCell id="8aEzLHYYMAuPvHVN1FfV-54" value="PK EXWELL JOEL SYLVESTER &lt;br&gt;NV/8709067&amp;nbsp;" style="text;html=1;strokeColor=none;fillColor=none;align=center;verticalAlign=middle;whiteSpace=wrap;rounded=0;" parent="1" vertex="1">
          <mxGeometry x="-290" y="1137" width="345" height="30" as="geometry" />
        </mxCell>
        <mxCell id="8aEzLHYYMAuPvHVN1FfV-55" value="PK MUHAMMAD NAZMI HAIKAL BIN MOHD FUAD &lt;br&gt;NV/8709068&amp;nbsp;" style="text;html=1;strokeColor=none;fillColor=none;align=center;verticalAlign=middle;whiteSpace=wrap;rounded=0;" parent="1" vertex="1">
          <mxGeometry x="30" y="1141" width="345" height="30" as="geometry" />
        </mxCell>
        <mxCell id="8aEzLHYYMAuPvHVN1FfV-56" value="PK NUR ASYIKIN BINTI MOHD FARIT &lt;br&gt;NV/8709069&amp;nbsp;" style="text;html=1;strokeColor=none;fillColor=none;align=center;verticalAlign=middle;whiteSpace=wrap;rounded=0;" parent="1" vertex="1">
          <mxGeometry x="330" y="1141" width="345" height="30" as="geometry" />
        </mxCell>
        <mxCell id="8aEzLHYYMAuPvHVN1FfV-57" value="PK SITI NURDINA BINTI ZAINUDDIN @ ZENAH &lt;br&gt;NV/8709070&amp;nbsp;" style="text;html=1;strokeColor=none;fillColor=none;align=center;verticalAlign=middle;whiteSpace=wrap;rounded=0;" parent="1" vertex="1">
          <mxGeometry x="630" y="1141" width="345" height="30" as="geometry" />
        </mxCell>
        <mxCell id="8aEzLHYYMAuPvHVN1FfV-58" value="PK NABILA BALQIS BINTI RIMUL &lt;br&gt;NV/8709073&amp;nbsp;" style="text;html=1;strokeColor=none;fillColor=none;align=center;verticalAlign=middle;whiteSpace=wrap;rounded=0;" parent="1" vertex="1">
          <mxGeometry x="-290" y="1187" width="345" height="30" as="geometry" />
        </mxCell>
        <mxCell id="8aEzLHYYMAuPvHVN1FfV-59" value="PK SUHAILA SYAZWANI BINTI BADRUL HISHAM &lt;br&gt;NV/8709074&amp;nbsp;" style="text;html=1;strokeColor=none;fillColor=none;align=center;verticalAlign=middle;whiteSpace=wrap;rounded=0;" parent="1" vertex="1">
          <mxGeometry x="30" y="1191" width="345" height="30" as="geometry" />
        </mxCell>
        <mxCell id="8aEzLHYYMAuPvHVN1FfV-60" value="PK NORALIA FAZIRA BINTI OMAR &lt;br&gt;NV/8709076&amp;nbsp;" style="text;html=1;strokeColor=none;fillColor=none;align=center;verticalAlign=middle;whiteSpace=wrap;rounded=0;" parent="1" vertex="1">
          <mxGeometry x="330" y="1191" width="345" height="30" as="geometry" />
        </mxCell>
        <mxCell id="8aEzLHYYMAuPvHVN1FfV-61" value="PK NURIN SOFEA BINTI ABDUL &lt;br&gt;HALIM NV/8709079&amp;nbsp;" style="text;html=1;strokeColor=none;fillColor=none;align=center;verticalAlign=middle;whiteSpace=wrap;rounded=0;" parent="1" vertex="1">
          <mxGeometry x="630" y="1191" width="345" height="30" as="geometry" />
        </mxCell>
        <mxCell id="8aEzLHYYMAuPvHVN1FfV-62" value="PK AINA AISYAH BINTI AHMAD FAYZAL &lt;br&gt;NV/8709081" style="text;html=1;strokeColor=none;fillColor=none;align=center;verticalAlign=middle;whiteSpace=wrap;rounded=0;" parent="1" vertex="1">
          <mxGeometry x="187.5" y="1247" width="345" height="30" as="geometry" />
        </mxCell>
        <mxCell id="8aEzLHYYMAuPvHVN1FfV-63" value="" style="endArrow=none;html=1;rounded=0;entryX=0.5;entryY=1;entryDx=0;entryDy=0;exitX=0.5;exitY=0;exitDx=0;exitDy=0;" parent="1" source="8aEzLHYYMAuPvHVN1FfV-21" target="8aEzLHYYMAuPvHVN1FfV-10" edge="1">
          <mxGeometry width="50" height="50" relative="1" as="geometry">
            <mxPoint x="540" y="480" as="sourcePoint" />
            <mxPoint x="590" y="430" as="targetPoint" />
            <Array as="points">
              <mxPoint x="575" y="450" />
              <mxPoint x="360" y="450" />
            </Array>
          </mxGeometry>
        </mxCell>
        <mxCell id="8aEzLHYYMAuPvHVN1FfV-64" value="" style="endArrow=none;html=1;rounded=0;entryX=0.5;entryY=1;entryDx=0;entryDy=0;exitX=0.5;exitY=0;exitDx=0;exitDy=0;" parent="1" source="8aEzLHYYMAuPvHVN1FfV-13" target="8aEzLHYYMAuPvHVN1FfV-10" edge="1">
          <mxGeometry width="50" height="50" relative="1" as="geometry">
            <mxPoint x="540" y="480" as="sourcePoint" />
            <mxPoint x="590" y="430" as="targetPoint" />
            <Array as="points">
              <mxPoint x="145" y="450" />
              <mxPoint x="360" y="450" />
            </Array>
          </mxGeometry>
        </mxCell>
        <mxCell id="8aEzLHYYMAuPvHVN1FfV-65" value="" style="endArrow=none;html=1;rounded=0;entryX=0.5;entryY=1;entryDx=0;entryDy=0;exitX=0.5;exitY=0;exitDx=0;exitDy=0;" parent="1" source="8aEzLHYYMAuPvHVN1FfV-29" target="8aEzLHYYMAuPvHVN1FfV-10" edge="1">
          <mxGeometry width="50" height="50" relative="1" as="geometry">
            <mxPoint x="480" y="760" as="sourcePoint" />
            <mxPoint x="530" y="710" as="targetPoint" />
          </mxGeometry>
        </mxCell>
        <mxCell id="8aEzLHYYMAuPvHVN1FfV-66" value="" style="endArrow=none;html=1;rounded=0;entryX=0.5;entryY=0;entryDx=0;entryDy=0;exitX=0.5;exitY=0;exitDx=0;exitDy=0;" parent="1" source="8aEzLHYYMAuPvHVN1FfV-27" target="8aEzLHYYMAuPvHVN1FfV-29" edge="1">
          <mxGeometry width="50" height="50" relative="1" as="geometry">
            <mxPoint x="390" y="760" as="sourcePoint" />
            <mxPoint x="440" y="710" as="targetPoint" />
            <Array as="points">
              <mxPoint x="662" y="680" />
              <mxPoint x="360" y="680" />
            </Array>
          </mxGeometry>
        </mxCell>
        <mxCell id="8aEzLHYYMAuPvHVN1FfV-67" value="" style="endArrow=none;html=1;rounded=0;entryX=0.5;entryY=0;entryDx=0;entryDy=0;exitX=0.5;exitY=0;exitDx=0;exitDy=0;" parent="1" source="8aEzLHYYMAuPvHVN1FfV-25" target="8aEzLHYYMAuPvHVN1FfV-29" edge="1">
          <mxGeometry width="50" height="50" relative="1" as="geometry">
            <mxPoint x="410" y="600" as="sourcePoint" />
            <mxPoint x="460" y="550" as="targetPoint" />
            <Array as="points">
              <mxPoint x="83" y="680" />
              <mxPoint x="360" y="680" />
            </Array>
          </mxGeometry>
        </mxCell>
        <mxCell id="8aEzLHYYMAuPvHVN1FfV-68" value="" style="endArrow=none;html=1;rounded=0;entryX=0.5;entryY=1;entryDx=0;entryDy=0;exitX=0.5;exitY=0;exitDx=0;exitDy=0;" parent="1" source="8aEzLHYYMAuPvHVN1FfV-33" target="8aEzLHYYMAuPvHVN1FfV-32" edge="1">
          <mxGeometry width="50" height="50" relative="1" as="geometry">
            <mxPoint x="180" y="990" as="sourcePoint" />
            <mxPoint x="230" y="940" as="targetPoint" />
          </mxGeometry>
        </mxCell>
      </root>
    </mxGraphModel>
  </diagram>
</mxfile>
